<?xml version="1.0" standalone="no"?>
<!DOCTYPE svg PUBLIC "-//W3C//DTD SVG 20010904//EN"
 "http://www.w3.org/TR/2001/REC-SVG-20010904/DTD/svg10.dtd">
<svg version="1.0" xmlns="http://www.w3.org/2000/svg"
 width="512.000000pt" height="512.000000pt" viewBox="0 0 512.000000 512.000000"
 preserveAspectRatio="xMidYMid meet">

<g transform="translate(0.000000,512.000000) scale(0.100000,-0.100000)"
fill="#000000" stroke="none">
<path d="M79 4067 c-19 -12 -44 -42 -56 -67 l-23 -44 0 -1396 0 -1396 22 -44
c13 -25 38 -55 57 -67 l34 -23 2447 0 2447 0 34 23 c19 12 44 42 56 67 l23 44
0 1396 0 1396 -22 44 c-13 25 -38 55 -57 67 l-34 23 -2009 0 -2009 0 -24 -25
c-32 -31 -32 -75 -1 -112 l24 -28 1981 -3 1981 -2 0 -1360 0 -1360 -2390 0
-2390 0 0 1360 0 1360 255 0 c201 0 263 3 290 15 58 23 70 90 25 135 -19 19
-35 20 -324 20 -298 0 -304 0 -337 -23z"/>
<path d="M981 3750 c-71 -17 -115 -68 -136 -158 -21 -88 -51 -146 -108 -209
-64 -69 -132 -108 -226 -129 -82 -18 -134 -55 -157 -111 -20 -47 -20 -1119 0
-1166 23 -56 75 -93 157 -111 94 -21 162 -60 226 -129 57 -63 87 -121 108
-209 21 -92 64 -141 141 -158 52 -12 3096 -12 3148 0 77 17 120 66 141 159 22
93 62 165 125 225 66 63 113 89 204 112 86 21 125 48 154 104 l22 44 0 546 0
546 -22 44 c-29 56 -68 83 -154 104 -91 23 -138 49 -204 112 -63 60 -103 132
-125 225 -21 93 -64 142 -141 159 -48 12 -3105 11 -3153 0z m3123 -182 c42
-157 90 -245 184 -335 64 -61 182 -125 267 -144 l55 -12 0 -517 0 -517 -54
-12 c-29 -6 -84 -27 -122 -45 -172 -83 -272 -214 -330 -433 -5 -19 -3083 -19
-3088 0 -42 156 -90 244 -184 334 -64 61 -182 125 -267 144 l-55 12 0 517 0
517 55 12 c85 19 203 83 267 144 94 90 142 178 184 335 3 9 320 12 1544 12
1224 0 1541 -3 1544 -12z"/>
<path d="M2385 3395 c-161 -36 -303 -113 -421 -230 -172 -171 -254 -368 -254
-608 1 -289 138 -544 380 -706 144 -96 293 -141 471 -141 288 0 547 138 706
377 98 148 143 298 143 476 -1 234 -83 431 -249 598 -123 123 -264 200 -431
235 -81 17 -265 16 -345 -1z m320 -170 c193 -40 372 -179 459 -357 102 -205
102 -411 0 -616 -111 -226 -348 -372 -604 -372 -256 0 -493 146 -604 372 -102
205 -102 411 0 616 111 226 342 369 599 371 44 0 112 -6 150 -14z"/>
<path d="M2502 3048 c-11 -13 -23 -35 -27 -50 -4 -17 -24 -37 -55 -56 -53 -33
-96 -97 -112 -164 -31 -139 80 -286 231 -304 71 -8 101 -33 101 -84 0 -47 -33
-80 -80 -80 -24 0 -44 10 -76 40 -51 47 -80 50 -123 14 -57 -48 -28 -136 63
-189 29 -17 46 -35 51 -53 24 -96 146 -96 170 0 4 17 24 37 55 56 53 33 96 97
112 164 31 139 -80 286 -231 304 -71 8 -101 33 -101 84 0 47 33 80 81 80 28 0
43 -8 74 -40 46 -47 89 -53 130 -17 53 45 20 140 -69 192 -29 17 -46 35 -51
53 -11 44 -44 72 -85 72 -25 0 -43 -7 -58 -22z"/>
<path d="M925 2887 c-56 -19 -81 -33 -127 -75 -55 -50 -85 -100 -104 -174 -39
-152 45 -323 194 -391 37 -17 66 -22 137 -22 78 0 98 4 146 28 136 66 211 212
187 363 -16 106 -88 203 -185 251 -66 32 -183 41 -248 20z m171 -176 c63 -29
89 -72 89 -151 0 -79 -26 -122 -89 -151 -54 -25 -93 -24 -146 4 -51 26 -78 59
-90 110 -16 74 16 144 86 184 47 28 96 29 150 4z"/>
<path d="M3993 2886 c-161 -52 -258 -213 -231 -382 17 -107 88 -203 187 -251
49 -24 68 -28 146 -28 108 0 159 20 233 89 143 134 143 358 0 492 -27 25 -70
55 -96 66 -59 27 -179 34 -239 14z m177 -178 c73 -38 107 -108 90 -185 -12
-51 -39 -84 -90 -110 -53 -28 -92 -29 -146 -4 -63 29 -89 72 -89 151 0 79 26
122 89 151 54 25 93 24 146 -3z"/>
</g>
</svg>
